<?xml version="1.0" encoding="UTF-8" standalone="no"?>
<svg xmlns="http://www.w3.org/2000/svg" width="500" height="500"><defs><clipPath id="clip-path-dot-color"><path d="M 18 178v 16h 8a 8 8, 0, 0, 0, 0 -16" transform="rotate(180,26,186)"/><path d="M 18 210v 16h 8a 8 8, 0, 0, 0, 0 -16" transform="rotate(-90,26,218)"/><rect x="18" y="226" width="16" height="16" transform="rotate(0,26,234)"/><rect x="18" y="242" width="16" height="16" transform="rotate(0,26,250)"/><path d="M 18 258v 16h 16v -8a 8 8, 0, 0, 0, -8 -8" transform="rotate(180,26,266)"/><path d="M 18 290v 16h 8a 8 8, 0, 0, 0, 0 -16" transform="rotate(-90,26,298)"/><path d="M 18 306v 16h 16v -8a 8 8, 0, 0, 0, -8 -8" transform="rotate(180,26,314)"/><circle cx="26" cy="346" r="8" transform="rotate(0,26,346)"/><path d="M 34 162v 16h 16v -8a 8 8, 0, 0, 0, -8 -8" transform="rotate(-90,42,170)"/><rect x="34" y="178" width="16" height="16" transform="rotate(0,42,186)"/><path d="M 34 194v 16h 8a 8 8, 0, 0, 0, 0 -16" transform="rotate(90,42,202)"/><path d="M 34 242v 16h 16v -8a 8 8, 0, 0, 0, -8 -8" transform="rotate(0,42,250)"/><path d="M 34 258v 16h 16v -8a 8 8, 0, 0, 0, -8 -8" transform="rotate(90,42,266)"/><path d="M 34 306v 16h 16v -8a 8 8, 0, 0, 0, -8 -8" transform="rotate(0,42,314)"/><path d="M 34 322v 16h 8a 8 8, 0, 0, 0, 0 -16" transform="rotate(90,42,330)"/><path d="M 50 146v 16h 8a 8 8, 0, 0, 0, 0 -16" transform="rotate(-90,58,154)"/><path d="M 50 162v 16h 16v -8a 8 8, 0, 0, 0, -8 -8" transform="rotate(90,58,170)"/><path d="M 50 210v 16h 8a 8 8, 0, 0, 0, 0 -16" transform="rotate(-90,58,218)"/><path d="M 50 226v 16h 16v -8a 8 8, 0, 0, 0, -8 -8" transform="rotate(180,58,234)"/><circle cx="58" cy="298" r="8" transform="rotate(0,58,298)"/><circle cx="58" cy="346" r="8" transform="rotate(0,58,346)"/><path d="M 66 178v 16h 8a 8 8, 0, 0, 0, 0 -16" transform="rotate(-90,74,186)"/><path d="M 66 194v 16h 8a 8 8, 0, 0, 0, 0 -16" transform="rotate(90,74,202)"/><rect x="66" y="226" width="16" height="16" transform="rotate(0,74,234)"/><path d="M 66 242v 16h 8a 8 8, 0, 0, 0, 0 -16" transform="rotate(90,74,250)"/><path d="M 66 306v 16h 8a 8 8, 0, 0, 0, 0 -16" transform="rotate(180,74,314)"/><path d="M 82 146v 16h 8a 8 8, 0, 0, 0, 0 -16" transform="rotate(180,90,154)"/><rect x="82" y="226" width="16" height="16" transform="rotate(0,90,234)"/><path d="M 82 258v 16h 8a 8 8, 0, 0, 0, 0 -16" transform="rotate(-90,90,266)"/><rect x="82" y="274" width="16" height="16" transform="rotate(0,90,282)"/><rect x="82" y="290" width="16" height="16" transform="rotate(0,90,298)"/><path d="M 82 306v 16h 16v -8a 8 8, 0, 0, 0, -8 -8" transform="rotate(90,90,314)"/><rect x="98" y="146" width="16" height="16" transform="rotate(0,106,154)"/><path d="M 98 162v 16h 8a 8 8, 0, 0, 0, 0 -16" transform="rotate(90,106,170)"/><path d="M 98 226v 16h 8a 8 8, 0, 0, 0, 0 -16" transform="rotate(0,106,234)"/><path d="M 98 290v 16h 8a 8 8, 0, 0, 0, 0 -16" transform="rotate(0,106,298)"/><path d="M 98 322v 16h 8a 8 8, 0, 0, 0, 0 -16" transform="rotate(-90,106,330)"/><path d="M 98 338v 16h 16v -8a 8 8, 0, 0, 0, -8 -8" transform="rotate(180,106,346)"/><path d="M 114 146v 16h 8a 8 8, 0, 0, 0, 0 -16" transform="rotate(0,122,154)"/><circle cx="122" cy="186" r="8" transform="rotate(0,122,186)"/><circle cx="122" cy="218" r="8" transform="rotate(0,122,218)"/><circle cx="122" cy="250" r="8" transform="rotate(0,122,250)"/><circle cx="122" cy="282" r="8" transform="rotate(0,122,282)"/><path d="M 114 306v 16h 8a 8 8, 0, 0, 0, 0 -16" transform="rotate(180,122,314)"/><path d="M 114 338v 16h 8a 8 8, 0, 0, 0, 0 -16" transform="rotate(0,122,346)"/><path d="M 130 258v 16h 8a 8 8, 0, 0, 0, 0 -16" transform="rotate(180,138,266)"/><path d="M 130 290v 16h 8a 8 8, 0, 0, 0, 0 -16" transform="rotate(-90,138,298)"/><rect x="130" y="306" width="16" height="16" transform="rotate(0,138,314)"/><path d="M 146 34v 16h 8a 8 8, 0, 0, 0, 0 -16" transform="rotate(180,154,42)"/><path d="M 146 82v 16h 8a 8 8, 0, 0, 0, 0 -16" transform="rotate(180,154,90)"/><circle cx="154" cy="122" r="8" transform="rotate(0,154,122)"/><path d="M 146 146v 16h 16v -8a 8 8, 0, 0, 0, -8 -8" transform="rotate(-90,154,154)"/><rect x="146" y="162" width="16" height="16" transform="rotate(0,154,170)"/><rect x="146" y="178" width="16" height="16" transform="rotate(0,154,186)"/><rect x="146" y="194" width="16" height="16" transform="rotate(0,154,202)"/><rect x="146" y="210" width="16" height="16" transform="rotate(0,154,218)"/><path d="M 146 226v 16h 16v -8a 8 8, 0, 0, 0, -8 -8" transform="rotate(180,154,234)"/><path d="M 146 258v 16h 8a 8 8, 0, 0, 0, 0 -16" transform="rotate(0,154,266)"/><rect x="146" y="306" width="16" height="16" transform="rotate(0,154,314)"/><path d="M 146 322v 16h 8a 8 8, 0, 0, 0, 0 -16" transform="rotate(90,154,330)"/><circle cx="154" cy="362" r="8" transform="rotate(0,154,362)"/><path d="M 146 386v 16h 16v -8a 8 8, 0, 0, 0, -8 -8" transform="rotate(-90,154,394)"/><path d="M 146 402v 16h 16v -8a 8 8, 0, 0, 0, -8 -8" transform="rotate(180,154,410)"/><circle cx="154" cy="442" r="8" transform="rotate(0,154,442)"/><path d="M 162 18v 16h 8a 8 8, 0, 0, 0, 0 -16" transform="rotate(-90,170,26)"/><rect x="162" y="34" width="16" height="16" transform="rotate(0,170,42)"/><path d="M 162 66v 16h 16v -8a 8 8, 0, 0, 0, -8 -8" transform="rotate(-90,170,74)"/><rect x="162" y="82" width="16" height="16" transform="rotate(0,170,90)"/><path d="M 162 98v 16h 16v -8a 8 8, 0, 0, 0, -8 -8" transform="rotate(180,170,106)"/><path d="M 162 130v 16h 16v -8a 8 8, 0, 0, 0, -8 -8" transform="rotate(-90,170,138)"/><rect x="162" y="146" width="16" height="16" transform="rotate(0,170,154)"/><rect x="162" y="210" width="16" height="16" transform="rotate(0,170,218)"/><rect x="162" y="226" width="16" height="16" transform="rotate(0,170,234)"/><path d="M 162 242v 16h 8a 8 8, 0, 0, 0, 0 -16" transform="rotate(90,170,250)"/><path d="M 162 290v 16h 16v -8a 8 8, 0, 0, 0, -8 -8" transform="rotate(-90,170,298)"/><path d="M 162 306v 16h 16v -8a 8 8, 0, 0, 0, -8 -8" transform="rotate(90,170,314)"/><path d="M 162 370v 16h 8a 8 8, 0, 0, 0, 0 -16" transform="rotate(-90,170,378)"/><rect x="162" y="386" width="16" height="16" transform="rotate(0,170,394)"/><rect x="162" y="402" width="16" height="16" transform="rotate(0,170,410)"/><path d="M 162 450v 16h 8a 8 8, 0, 0, 0, 0 -16" transform="rotate(-90,170,458)"/><path d="M 162 466v 16h 16v -8a 8 8, 0, 0, 0, -8 -8" transform="rotate(180,170,474)"/><path d="M 178 34v 16h 8a 8 8, 0, 0, 0, 0 -16" transform="rotate(0,186,42)"/><path d="M 178 66v 16h 8a 8 8, 0, 0, 0, 0 -16" transform="rotate(0,186,74)"/><path d="M 178 98v 16h 16v -8a 8 8, 0, 0, 0, -8 -8" transform="rotate(0,186,106)"/><rect x="178" y="114" width="16" height="16" transform="rotate(0,186,122)"/><rect x="178" y="130" width="16" height="16" transform="rotate(0,186,138)"/><rect x="178" y="146" width="16" height="16" transform="rotate(0,186,154)"/><path d="M 178 162v 16h 8a 8 8, 0, 0, 0, 0 -16" transform="rotate(90,186,170)"/><rect x="178" y="210" width="16" height="16" transform="rotate(0,186,218)"/><path d="M 178 274v 16h 16v -8a 8 8, 0, 0, 0, -8 -8" transform="rotate(-90,186,282)"/><rect x="178" y="290" width="16" height="16" transform="rotate(0,186,298)"/><path d="M 178 338v 16h 16v -8a 8 8, 0, 0, 0, -8 -8" transform="rotate(-90,186,346)"/><path d="M 178 354v 16h 16v -8a 8 8, 0, 0, 0, -8 -8" transform="rotate(180,186,362)"/><rect x="178" y="402" width="16" height="16" transform="rotate(0,186,410)"/><rect x="178" y="418" width="16" height="16" transform="rotate(0,186,426)"/><path d="M 178 434v 16h 8a 8 8, 0, 0, 0, 0 -16" transform="rotate(90,186,442)"/><rect x="178" y="466" width="16" height="16" transform="rotate(0,186,474)"/><path d="M 194 18v 16h 8a 8 8, 0, 0, 0, 0 -16" transform="rotate(180,202,26)"/><path d="M 194 50v 16h 8a 8 8, 0, 0, 0, 0 -16" transform="rotate(180,202,58)"/><rect x="194" y="130" width="16" height="16" transform="rotate(0,202,138)"/><path d="M 194 146v 16h 16v -8a 8 8, 0, 0, 0, -8 -8" transform="rotate(90,202,154)"/><path d="M 194 178v 16h 8a 8 8, 0, 0, 0, 0 -16" transform="rotate(180,202,186)"/><path d="M 194 210v 16h 8a 8 8, 0, 0, 0, 0 -16" transform="rotate(0,202,218)"/><path d="M 194 242v 16h 8a 8 8, 0, 0, 0, 0 -16" transform="rotate(180,202,250)"/><path d="M 194 274v 16h 16v -8a 8 8, 0, 0, 0, -8 -8" transform="rotate(0,202,282)"/><rect x="194" y="290" width="16" height="16" transform="rotate(0,202,298)"/><path d="M 194 306v 16h 8a 8 8, 0, 0, 0, 0 -16" transform="rotate(90,202,314)"/><path d="M 194 338v 16h 16v -8a 8 8, 0, 0, 0, -8 -8" transform="rotate(0,202,346)"/><path d="M 194 354v 16h 16v -8a 8 8, 0, 0, 0, -8 -8" transform="rotate(90,202,362)"/><path d="M 194 402v 16h 16v -8a 8 8, 0, 0, 0, -8 -8" transform="rotate(0,202,410)"/><path d="M 194 418v 16h 16v -8a 8 8, 0, 0, 0, -8 -8" transform="rotate(90,202,426)"/><path d="M 194 450v 16h 8a 8 8, 0, 0, 0, 0 -16" transform="rotate(-90,202,458)"/><rect x="194" y="466" width="16" height="16" transform="rotate(0,202,474)"/><rect x="210" y="18" width="16" height="16" transform="rotate(0,218,26)"/><path d="M 210 50v 16h 8a 8 8, 0, 0, 0, 0 -16" transform="rotate(0,218,58)"/><circle cx="218" cy="90" r="8" transform="rotate(0,218,90)"/><path d="M 210 114v 16h 8a 8 8, 0, 0, 0, 0 -16" transform="rotate(-90,218,122)"/><path d="M 210 130v 16h 16v -8a 8 8, 0, 0, 0, -8 -8" transform="rotate(90,218,138)"/><path d="M 210 178v 16h 16v -8a 8 8, 0, 0, 0, -8 -8" transform="rotate(0,218,186)"/><path d="M 210 194v 16h 16v -8a 8 8, 0, 0, 0, -8 -8" transform="rotate(180,218,202)"/><path d="M 210 226v 16h 8a 8 8, 0, 0, 0, 0 -16" transform="rotate(-90,218,234)"/><path d="M 210 242v 16h 16v -8a 8 8, 0, 0, 0, -8 -8" transform="rotate(90,218,250)"/><rect x="210" y="290" width="16" height="16" transform="rotate(0,218,298)"/><circle cx="218" cy="330" r="8" transform="rotate(0,218,330)"/><circle cx="218" cy="394" r="8" transform="rotate(0,218,394)"/><rect x="210" y="466" width="16" height="16" transform="rotate(0,218,474)"/><path d="M 226 18v 16h 16v -8a 8 8, 0, 0, 0, -8 -8" transform="rotate(0,234,26)"/><path d="M 226 34v 16h 16v -8a 8 8, 0, 0, 0, -8 -8" transform="rotate(180,234,42)"/><path d="M 226 98v 16h 8a 8 8, 0, 0, 0, 0 -16" transform="rotate(180,234,106)"/><circle cx="234" cy="170" r="8" transform="rotate(0,234,170)"/><rect x="226" y="194" width="16" height="16" transform="rotate(0,234,202)"/><path d="M 226 258v 16h 8a 8 8, 0, 0, 0, 0 -16" transform="rotate(-90,234,266)"/><rect x="226" y="274" width="16" height="16" transform="rotate(0,234,282)"/><rect x="226" y="290" width="16" height="16" transform="rotate(0,234,298)"/><path d="M 226 306v 16h 16v -8a 8 8, 0, 0, 0, -8 -8" transform="rotate(180,234,314)"/><circle cx="234" cy="378" r="8" transform="rotate(0,234,378)"/><path d="M 226 402v 16h 8a 8 8, 0, 0, 0, 0 -16" transform="rotate(180,234,410)"/><circle cx="234" cy="442" r="8" transform="rotate(0,234,442)"/><rect x="226" y="466" width="16" height="16" transform="rotate(0,234,474)"/><path d="M 242 34v 16h 8a 8 8, 0, 0, 0, 0 -16" transform="rotate(0,250,42)"/><path d="M 242 98v 16h 16v -8a 8 8, 0, 0, 0, -8 -8" transform="rotate(0,250,106)"/><rect x="242" y="114" width="16" height="16" transform="rotate(0,250,122)"/><path d="M 242 130v 16h 8a 8 8, 0, 0, 0, 0 -16" transform="rotate(90,250,138)"/><path d="M 242 194v 16h 16v -8a 8 8, 0, 0, 0, -8 -8" transform="rotate(0,250,202)"/><path d="M 242 210v 16h 8a 8 8, 0, 0, 0, 0 -16" transform="rotate(90,250,218)"/><path d="M 242 306v 16h 8a 8 8, 0, 0, 0, 0 -16" transform="rotate(0,250,314)"/><circle cx="250" cy="346" r="8" transform="rotate(0,250,346)"/><path d="M 242 402v 16h 8a 8 8, 0, 0, 0, 0 -16" transform="rotate(0,250,410)"/><rect x="242" y="466" width="16" height="16" transform="rotate(0,250,474)"/><circle cx="266" cy="26" r="8" transform="rotate(0,266,26)"/><path d="M 258 66v 16h 16v -8a 8 8, 0, 0, 0, -8 -8" transform="rotate(-90,266,74)"/><path d="M 258 82v 16h 8a 8 8, 0, 0, 0, 0 -16" transform="rotate(90,266,90)"/><circle cx="266" cy="170" r="8" transform="rotate(0,266,170)"/><path d="M 258 258v 16h 8a 8 8, 0, 0, 0, 0 -16" transform="rotate(-90,266,266)"/><path d="M 258 274v 16h 16v -8a 8 8, 0, 0, 0, -8 -8" transform="rotate(180,266,282)"/><path d="M 258 322v 16h 8a 8 8, 0, 0, 0, 0 -16" transform="rotate(180,266,330)"/><circle cx="266" cy="394" r="8" transform="rotate(0,266,394)"/><circle cx="266" cy="426" r="8" transform="rotate(0,266,426)"/><path d="M 258 450v 16h 8a 8 8, 0, 0, 0, 0 -16" transform="rotate(-90,266,458)"/><rect x="258" y="466" width="16" height="16" transform="rotate(0,266,474)"/><path d="M 274 34v 16h 8a 8 8, 0, 0, 0, 0 -16" transform="rotate(-90,282,42)"/><rect x="274" y="50" width="16" height="16" transform="rotate(0,282,58)"/><rect x="274" y="66" width="16" height="16" transform="rotate(0,282,74)"/><circle cx="282" cy="122" r="8" transform="rotate(0,282,122)"/><path d="M 274 178v 16h 8a 8 8, 0, 0, 0, 0 -16" transform="rotate(-90,282,186)"/><rect x="274" y="194" width="16" height="16" transform="rotate(0,282,202)"/><rect x="274" y="210" width="16" height="16" transform="rotate(0,282,218)"/><path d="M 274 226v 16h 16v -8a 8 8, 0, 0, 0, -8 -8" transform="rotate(180,282,234)"/><path d="M 274 274v 16h 8a 8 8, 0, 0, 0, 0 -16" transform="rotate(0,282,282)"/><path d="M 274 322v 16h 16v -8a 8 8, 0, 0, 0, -8 -8" transform="rotate(0,282,330)"/><rect x="274" y="338" width="16" height="16" transform="rotate(0,282,346)"/><path d="M 274 354v 16h 16v -8a 8 8, 0, 0, 0, -8 -8" transform="rotate(180,282,362)"/><rect x="274" y="466" width="16" height="16" transform="rotate(0,282,474)"/><circle cx="298" cy="26" r="8" transform="rotate(0,298,26)"/><rect x="290" y="50" width="16" height="16" transform="rotate(0,298,58)"/><rect x="290" y="66" width="16" height="16" transform="rotate(0,298,74)"/><path d="M 290 98v 16h 8a 8 8, 0, 0, 0, 0 -16" transform="rotate(180,298,106)"/><circle cx="298" cy="138" r="8" transform="rotate(0,298,138)"/><path d="M 290 162v 16h 8a 8 8, 0, 0, 0, 0 -16" transform="rotate(180,298,170)"/><path d="M 290 194v 16h 8a 8 8, 0, 0, 0, 0 -16" transform="rotate(0,298,202)"/><path d="M 290 226v 16h 16v -8a 8 8, 0, 0, 0, -8 -8" transform="rotate(0,298,234)"/><path d="M 290 242v 16h 8a 8 8, 0, 0, 0, 0 -16" transform="rotate(90,298,250)"/><path d="M 290 290v 16h 8a 8 8, 0, 0, 0, 0 -16" transform="rotate(-90,298,298)"/><path d="M 290 306v 16h 16v -8a 8 8, 0, 0, 0, -8 -8" transform="rotate(180,298,314)"/><path d="M 290 354v 16h 16v -8a 8 8, 0, 0, 0, -8 -8" transform="rotate(0,298,362)"/><rect x="290" y="370" width="16" height="16" transform="rotate(0,298,378)"/><rect x="290" y="386" width="16" height="16" transform="rotate(0,298,394)"/><rect x="290" y="402" width="16" height="16" transform="rotate(0,298,410)"/><rect x="290" y="418" width="16" height="16" transform="rotate(0,298,426)"/><path d="M 290 434v 16h 16v -8a 8 8, 0, 0, 0, -8 -8" transform="rotate(180,298,442)"/><rect x="290" y="466" width="16" height="16" transform="rotate(0,298,474)"/><rect x="306" y="50" width="16" height="16" transform="rotate(0,314,58)"/><rect x="306" y="66" width="16" height="16" transform="rotate(0,314,74)"/><rect x="306" y="82" width="16" height="16" transform="rotate(0,314,90)"/><rect x="306" y="98" width="16" height="16" transform="rotate(0,314,106)"/><path d="M 306 114v 16h 8a 8 8, 0, 0, 0, 0 -16" transform="rotate(90,314,122)"/><path d="M 306 146v 16h 16v -8a 8 8, 0, 0, 0, -8 -8" transform="rotate(-90,314,154)"/><rect x="306" y="162" width="16" height="16" transform="rotate(0,314,170)"/><path d="M 306 258v 16h 8a 8 8, 0, 0, 0, 0 -16" transform="rotate(180,314,266)"/><path d="M 306 306v 16h 8a 8 8, 0, 0, 0, 0 -16" transform="rotate(0,314,314)"/><path d="M 306 386v 16h 8a 8 8, 0, 0, 0, 0 -16" transform="rotate(0,314,394)"/><path d="M 306 434v 16h 8a 8 8, 0, 0, 0, 0 -16" transform="rotate(0,314,442)"/><rect x="306" y="466" width="16" height="16" transform="rotate(0,314,474)"/><rect x="322" y="50" width="16" height="16" transform="rotate(0,330,58)"/><rect x="322" y="66" width="16" height="16" transform="rotate(0,330,74)"/><path d="M 322 98v 16h 8a 8 8, 0, 0, 0, 0 -16" transform="rotate(0,330,106)"/><path d="M 322 146v 16h 16v -8a 8 8, 0, 0, 0, -8 -8" transform="rotate(0,330,154)"/><path d="M 322 162v 16h 16v -8a 8 8, 0, 0, 0, -8 -8" transform="rotate(90,330,170)"/><path d="M 322 194v 16h 16v -8a 8 8, 0, 0, 0, -8 -8" transform="rotate(-90,330,202)"/><path d="M 322 210v 16h 16v -8a 8 8, 0, 0, 0, -8 -8" transform="rotate(180,330,218)"/><path d="M 322 258v 16h 16v -8a 8 8, 0, 0, 0, -8 -8" transform="rotate(0,330,266)"/><rect x="322" y="274" width="16" height="16" transform="rotate(0,330,282)"/><path d="M 322 290v 16h 16v -8a 8 8, 0, 0, 0, -8 -8" transform="rotate(180,330,298)"/><path d="M 322 322v 16h 8a 8 8, 0, 0, 0, 0 -16" transform="rotate(-90,330,330)"/><path d="M 322 338v 16h 16v -8a 8 8, 0, 0, 0, -8 -8" transform="rotate(180,330,346)"/><path d="M 322 402v 16h 16v -8a 8 8, 0, 0, 0, -8 -8" transform="rotate(-90,330,410)"/><path d="M 322 418v 16h 8a 8 8, 0, 0, 0, 0 -16" transform="rotate(90,330,426)"/><path d="M 322 450v 16h 16v -8a 8 8, 0, 0, 0, -8 -8" transform="rotate(-90,330,458)"/><rect x="322" y="466" width="16" height="16" transform="rotate(0,330,474)"/><path d="M 338 18v 16h 8a 8 8, 0, 0, 0, 0 -16" transform="rotate(-90,346,26)"/><rect x="338" y="34" width="16" height="16" transform="rotate(0,346,42)"/><rect x="338" y="50" width="16" height="16" transform="rotate(0,346,58)"/><rect x="338" y="66" width="16" height="16" transform="rotate(0,346,74)"/><path d="M 338 82v 16h 8a 8 8, 0, 0, 0, 0 -16" transform="rotate(90,346,90)"/><path d="M 338 114v 16h 8a 8 8, 0, 0, 0, 0 -16" transform="rotate(-90,346,122)"/><path d="M 338 130v 16h 8a 8 8, 0, 0, 0, 0 -16" transform="rotate(90,346,138)"/><path d="M 338 178v 16h 16v -8a 8 8, 0, 0, 0, -8 -8" transform="rotate(-90,346,186)"/><rect x="338" y="194" width="16" height="16" transform="rotate(0,346,202)"/><rect x="338" y="210" width="16" height="16" transform="rotate(0,346,218)"/><path d="M 338 226v 16h 8a 8 8, 0, 0, 0, 0 -16" transform="rotate(90,346,234)"/><rect x="338" y="274" width="16" height="16" transform="rotate(0,346,282)"/><path d="M 338 290v 16h 16v -8a 8 8, 0, 0, 0, -8 -8" transform="rotate(90,346,298)"/><rect x="338" y="338" width="16" height="16" transform="rotate(0,346,346)"/><rect x="338" y="354" width="16" height="16" transform="rotate(0,346,362)"/><rect x="338" y="370" width="16" height="16" transform="rotate(0,346,378)"/><rect x="338" y="386" width="16" height="16" transform="rotate(0,346,394)"/><rect x="338" y="402" width="16" height="16" transform="rotate(0,346,410)"/><path d="M 338 450v 16h 16v -8a 8 8, 0, 0, 0, -8 -8" transform="rotate(0,346,458)"/><rect x="338" y="466" width="16" height="16" transform="rotate(0,346,474)"/><circle cx="362" cy="154" r="8" transform="rotate(0,362,154)"/><rect x="354" y="178" width="16" height="16" transform="rotate(0,362,186)"/><rect x="354" y="194" width="16" height="16" transform="rotate(0,362,202)"/><path d="M 354 210v 16h 16v -8a 8 8, 0, 0, 0, -8 -8" transform="rotate(90,362,218)"/><path d="M 354 258v 16h 16v -8a 8 8, 0, 0, 0, -8 -8" transform="rotate(-90,362,266)"/><rect x="354" y="274" width="16" height="16" transform="rotate(0,362,282)"/><rect x="354" y="338" width="16" height="16" transform="rotate(0,362,346)"/><rect x="354" y="402" width="16" height="16" transform="rotate(0,362,410)"/><circle cx="362" cy="442" r="8" transform="rotate(0,362,442)"/><rect x="354" y="466" width="16" height="16" transform="rotate(0,362,474)"/><path d="M 370 178v 16h 8a 8 8, 0, 0, 0, 0 -16" transform="rotate(0,378,186)"/><path d="M 370 258v 16h 16v -8a 8 8, 0, 0, 0, -8 -8" transform="rotate(0,378,266)"/><rect x="370" y="274" width="16" height="16" transform="rotate(0,378,282)"/><path d="M 370 290v 16h 16v -8a 8 8, 0, 0, 0, -8 -8" transform="rotate(180,378,298)"/><path d="M 370 322v 16h 16v -8a 8 8, 0, 0, 0, -8 -8" transform="rotate(-90,378,330)"/><rect x="370" y="338" width="16" height="16" transform="rotate(0,378,346)"/><circle cx="378" cy="378" r="8" transform="rotate(0,378,378)"/><rect x="370" y="402" width="16" height="16" transform="rotate(0,378,410)"/><path d="M 370 466v 16h 8a 8 8, 0, 0, 0, 0 -16" transform="rotate(0,378,474)"/><path d="M 386 162v 16h 8a 8 8, 0, 0, 0, 0 -16" transform="rotate(180,394,170)"/><path d="M 386 210v 16h 8a 8 8, 0, 0, 0, 0 -16" transform="rotate(-90,394,218)"/><path d="M 386 226v 16h 8a 8 8, 0, 0, 0, 0 -16" transform="rotate(90,394,234)"/><path d="M 386 290v 16h 16v -8a 8 8, 0, 0, 0, -8 -8" transform="rotate(0,394,298)"/><rect x="386" y="306" width="16" height="16" transform="rotate(0,394,314)"/><rect x="386" y="322" width="16" height="16" transform="rotate(0,394,330)"/><rect x="386" y="338" width="16" height="16" transform="rotate(0,394,346)"/><rect x="386" y="402" width="16" height="16" transform="rotate(0,394,410)"/><path d="M 386 418v 16h 8a 8 8, 0, 0, 0, 0 -16" transform="rotate(90,394,426)"/><path d="M 402 146v 16h 8a 8 8, 0, 0, 0, 0 -16" transform="rotate(-90,410,154)"/><rect x="402" y="162" width="16" height="16" transform="rotate(0,410,170)"/><rect x="402" y="178" width="16" height="16" transform="rotate(0,410,186)"/><path d="M 402 194v 16h 16v -8a 8 8, 0, 0, 0, -8 -8" transform="rotate(180,410,202)"/><path d="M 402 242v 16h 16v -8a 8 8, 0, 0, 0, -8 -8" transform="rotate(-90,410,250)"/><path d="M 402 258v 16h 8a 8 8, 0, 0, 0, 0 -16" transform="rotate(90,410,266)"/><path d="M 402 306v 16h 16v -8a 8 8, 0, 0, 0, -8 -8" transform="rotate(0,410,314)"/><rect x="402" y="322" width="16" height="16" transform="rotate(0,410,330)"/><rect x="402" y="338" width="16" height="16" transform="rotate(0,410,346)"/><rect x="402" y="354" width="16" height="16" transform="rotate(0,410,362)"/><rect x="402" y="370" width="16" height="16" transform="rotate(0,410,378)"/><rect x="402" y="386" width="16" height="16" transform="rotate(0,410,394)"/><path d="M 402 402v 16h 16v -8a 8 8, 0, 0, 0, -8 -8" transform="rotate(90,410,410)"/><path d="M 418 162v 16h 16v -8a 8 8, 0, 0, 0, -8 -8" transform="rotate(0,426,170)"/><rect x="418" y="178" width="16" height="16" transform="rotate(0,426,186)"/><rect x="418" y="194" width="16" height="16" transform="rotate(0,426,202)"/><path d="M 418 226v 16h 8a 8 8, 0, 0, 0, 0 -16" transform="rotate(-90,426,234)"/><path d="M 418 242v 16h 16v -8a 8 8, 0, 0, 0, -8 -8" transform="rotate(90,426,250)"/><path d="M 418 274v 16h 16v -8a 8 8, 0, 0, 0, -8 -8" transform="rotate(-90,426,282)"/><path d="M 418 290v 16h 16v -8a 8 8, 0, 0, 0, -8 -8" transform="rotate(180,426,298)"/><path d="M 418 386v 16h 8a 8 8, 0, 0, 0, 0 -16" transform="rotate(0,426,394)"/><path d="M 418 434v 16h 8a 8 8, 0, 0, 0, 0 -16" transform="rotate(-90,426,442)"/><path d="M 418 450v 16h 16v -8a 8 8, 0, 0, 0, -8 -8" transform="rotate(180,426,458)"/><rect x="434" y="178" width="16" height="16" transform="rotate(0,442,186)"/><rect x="434" y="194" width="16" height="16" transform="rotate(0,442,202)"/><path d="M 434 210v 16h 16v -8a 8 8, 0, 0, 0, -8 -8" transform="rotate(180,442,218)"/><path d="M 434 274v 16h 16v -8a 8 8, 0, 0, 0, -8 -8" transform="rotate(0,442,282)"/><rect x="434" y="290" width="16" height="16" transform="rotate(0,442,298)"/><path d="M 434 322v 16h 8a 8 8, 0, 0, 0, 0 -16" transform="rotate(-90,442,330)"/><rect x="434" y="338" width="16" height="16" transform="rotate(0,442,346)"/><path d="M 434 354v 16h 16v -8a 8 8, 0, 0, 0, -8 -8" transform="rotate(180,442,362)"/><rect x="434" y="450" width="16" height="16" transform="rotate(0,442,458)"/><path d="M 434 466v 16h 16v -8a 8 8, 0, 0, 0, -8 -8" transform="rotate(180,442,474)"/><circle cx="458" cy="154" r="8" transform="rotate(0,458,154)"/><rect x="450" y="178" width="16" height="16" transform="rotate(0,458,186)"/><rect x="450" y="194" width="16" height="16" transform="rotate(0,458,202)"/><rect x="450" y="210" width="16" height="16" transform="rotate(0,458,218)"/><rect x="450" y="226" width="16" height="16" transform="rotate(0,458,234)"/><path d="M 450 242v 16h 8a 8 8, 0, 0, 0, 0 -16" transform="rotate(90,458,250)"/><rect x="450" y="290" width="16" height="16" transform="rotate(0,458,298)"/><rect x="450" y="338" width="16" height="16" transform="rotate(0,458,346)"/><rect x="450" y="354" width="16" height="16" transform="rotate(0,458,362)"/><rect x="450" y="370" width="16" height="16" transform="rotate(0,458,378)"/><path d="M 450 386v 16h 8a 8 8, 0, 0, 0, 0 -16" transform="rotate(90,458,394)"/><path d="M 450 418v 16h 8a 8 8, 0, 0, 0, 0 -16" transform="rotate(180,458,426)"/><rect x="450" y="450" width="16" height="16" transform="rotate(0,458,458)"/><path d="M 450 466v 16h 16v -8a 8 8, 0, 0, 0, -8 -8" transform="rotate(90,458,474)"/><path d="M 466 162v 16h 8a 8 8, 0, 0, 0, 0 -16" transform="rotate(-90,474,170)"/><rect x="466" y="178" width="16" height="16" transform="rotate(0,474,186)"/><rect x="466" y="194" width="16" height="16" transform="rotate(0,474,202)"/><path d="M 466 210v 16h 16v -8a 8 8, 0, 0, 0, -8 -8" transform="rotate(90,474,218)"/><circle cx="474" cy="266" r="8" transform="rotate(0,474,266)"/><path d="M 466 290v 16h 16v -8a 8 8, 0, 0, 0, -8 -8" transform="rotate(0,474,298)"/><rect x="466" y="306" width="16" height="16" transform="rotate(0,474,314)"/><rect x="466" y="322" width="16" height="16" transform="rotate(0,474,330)"/><path d="M 466 338v 16h 16v -8a 8 8, 0, 0, 0, -8 -8" transform="rotate(90,474,346)"/><path d="M 466 402v 16h 8a 8 8, 0, 0, 0, 0 -16" transform="rotate(-90,474,410)"/><path d="M 466 418v 16h 16v -8a 8 8, 0, 0, 0, -8 -8" transform="rotate(90,474,426)"/><path d="M 466 450v 16h 8a 8 8, 0, 0, 0, 0 -16" transform="rotate(0,474,458)"/></clipPath><clipPath id="clip-path-corners-square-color-0-0"><path clip-rule="evenodd" d="M 18 58v 32a 40 40, 0, 0, 0, 40 40h 32a 40 40, 0, 0, 0, 40 -40v -32a 40 40, 0, 0, 0, -40 -40h -32a 40 40, 0, 0, 0, -40 40M 58 34h 32a 24 24, 0, 0, 1, 24 24v 32a 24 24, 0, 0, 1, -24 24h -32a 24 24, 0, 0, 1, -24 -24v -32a 24 24, 0, 0, 1, 24 -24" transform="rotate(0,74,74)"/></clipPath><clipPath id="clip-path-corners-dot-color-0-0"><circle cx="74" cy="74" r="24" transform="rotate(0,74,74)"/></clipPath><clipPath id="clip-path-corners-square-color-1-0"><path clip-rule="evenodd" d="M 370 58v 32a 40 40, 0, 0, 0, 40 40h 32a 40 40, 0, 0, 0, 40 -40v -32a 40 40, 0, 0, 0, -40 -40h -32a 40 40, 0, 0, 0, -40 40M 410 34h 32a 24 24, 0, 0, 1, 24 24v 32a 24 24, 0, 0, 1, -24 24h -32a 24 24, 0, 0, 1, -24 -24v -32a 24 24, 0, 0, 1, 24 -24" transform="rotate(90,426,74)"/></clipPath><clipPath id="clip-path-corners-dot-color-1-0"><circle cx="426" cy="74" r="24" transform="rotate(90,426,74)"/></clipPath><clipPath id="clip-path-corners-square-color-0-1"><path clip-rule="evenodd" d="M 18 410v 32a 40 40, 0, 0, 0, 40 40h 32a 40 40, 0, 0, 0, 40 -40v -32a 40 40, 0, 0, 0, -40 -40h -32a 40 40, 0, 0, 0, -40 40M 58 386h 32a 24 24, 0, 0, 1, 24 24v 32a 24 24, 0, 0, 1, -24 24h -32a 24 24, 0, 0, 1, -24 -24v -32a 24 24, 0, 0, 1, 24 -24" transform="rotate(-90,74,426)"/></clipPath><clipPath id="clip-path-corners-dot-color-0-1"><circle cx="74" cy="426" r="24" transform="rotate(-90,74,426)"/></clipPath></defs><rect x="0" y="0" height="500" width="500" clip-path="url('#clip-path-background-color')" fill="#fff"/><rect x="0" y="0" height="500" width="500" clip-path="url('#clip-path-dot-color')" fill="#000000"/><rect x="18" y="18" height="112" width="112" clip-path="url('#clip-path-corners-square-color-0-0')" fill="#000000"/><rect x="50" y="50" height="48" width="48" clip-path="url('#clip-path-corners-dot-color-0-0')" fill="#000000"/><rect x="370" y="18" height="112" width="112" clip-path="url('#clip-path-corners-square-color-1-0')" fill="#000000"/><rect x="402" y="50" height="48" width="48" clip-path="url('#clip-path-corners-dot-color-1-0')" fill="#000000"/><rect x="18" y="370" height="112" width="112" clip-path="url('#clip-path-corners-square-color-0-1')" fill="#000000"/><rect x="50" y="402" height="48" width="48" clip-path="url('#clip-path-corners-dot-color-0-1')" fill="#000000"/></svg>